<svg width="326" height="82" viewBox="0 0 326 82" fill="none" xmlns="http://www.w3.org/2000/svg">
<path d="M99.5504 74.561C99.5504 76.1479 100.797 76.828 102.213 76.828C103.176 76.828 104.593 76.5446 104.593 75.2977C104.593 73.9942 102.78 73.7675 100.967 73.3141C99.1538 72.8607 97.3409 72.1239 97.3409 69.8569C97.3409 67.3632 99.6637 66.173 101.873 66.173C104.423 66.173 106.746 67.2499 106.746 70.0836H104.139C104.026 68.6101 103.006 68.27 101.76 68.27C100.91 68.27 99.947 68.6101 99.947 69.6302C99.947 70.5937 100.514 70.7071 103.573 71.4438C104.479 71.6705 107.199 72.2373 107.199 74.9577C107.199 77.168 105.443 78.8683 102.157 78.8683C99.4937 78.8683 96.9443 77.5648 97.0009 74.561H99.5504Z" fill="#BE202E"/>
<path d="M111.561 69.8H113.318V71.4436H111.561V75.8076C111.561 76.601 111.788 76.8277 112.581 76.8277C112.864 76.8277 113.091 76.8277 113.318 76.771V78.6413C112.921 78.698 112.354 78.698 111.901 78.698C110.428 78.698 109.125 78.358 109.125 76.601V71.4436H107.652V69.8H109.125V67.1929H111.561V69.8Z" fill="#BE202E"/>
<path d="M122.722 78.5846H120.456V77.3377H120.399C119.776 78.3012 118.756 78.8113 117.737 78.8113C115.187 78.8113 114.507 77.3944 114.507 75.1841V69.7999H116.943V74.7873C116.943 76.2042 117.397 76.941 118.473 76.941C119.776 76.941 120.343 76.2042 120.343 74.4473V69.8566H122.779V78.5846H122.722Z" fill="#BE202E"/>
<path d="M130.824 77.4511C130.257 78.4146 129.238 78.8113 128.104 78.8113C125.442 78.8113 124.139 76.5443 124.139 74.1073C124.139 71.7269 125.442 69.5733 128.048 69.5733C129.068 69.5733 130.087 70.0267 130.654 70.8768H130.711V66.4561H133.147V78.5846H130.881V77.4511H130.824ZM128.728 71.3869C127.141 71.3869 126.575 72.7471 126.575 74.2206C126.575 75.5808 127.198 77.0544 128.728 77.0544C130.314 77.0544 130.824 75.6375 130.824 74.2206C130.767 72.7471 130.257 71.3869 128.728 71.3869Z" fill="#BE202E"/>
<path d="M136.943 74.7874C136.999 76.3176 137.736 76.9977 139.095 76.9977C140.059 76.9977 140.852 76.431 141.022 75.8642H143.175C142.495 77.9612 141.022 78.8113 139.039 78.8113C136.263 78.8113 134.563 76.8844 134.563 74.164C134.563 71.5002 136.376 69.5166 139.039 69.5166C142.042 69.5166 143.458 72.0103 143.288 74.7307H136.943V74.7874ZM140.852 73.2572C140.625 72.0103 140.115 71.3869 138.926 71.3869C137.396 71.3869 136.943 72.5771 136.943 73.2572H140.852Z" fill="#BE202E"/>
<path d="M144.704 69.7999H146.97V71.0468H147.027C147.65 70.0833 148.67 69.5732 149.69 69.5732C152.239 69.5732 152.919 70.9901 152.919 73.2005V78.5846H150.483V73.5972C150.483 72.1803 150.03 71.4435 148.953 71.4435C147.65 71.4435 147.084 72.1803 147.084 73.9372V78.5279H144.648V69.7999H144.704Z" fill="#BE202E"/>
<path d="M157.848 69.8H159.605V71.4436H157.848V75.8076C157.848 76.601 158.075 76.8277 158.868 76.8277C159.151 76.8277 159.378 76.8277 159.605 76.771V78.6413C159.208 78.698 158.641 78.698 158.188 78.698C156.715 78.698 155.412 78.358 155.412 76.601V71.4436H153.939V69.8H155.412V67.1929H157.848V69.8Z" fill="#BE202E"/>
<path d="M165.723 66.4561H168.386V78.5846H165.723V66.4561Z" fill="#BE202E"/>
<path d="M170.482 69.7999H172.749V71.0468H172.805C173.428 70.0833 174.448 69.5732 175.468 69.5732C178.017 69.5732 178.697 70.9901 178.697 73.2005V78.5846H176.261V73.5972C176.261 72.1803 175.808 71.4435 174.731 71.4435C173.428 71.4435 172.862 72.1803 172.862 73.9372V78.5279H170.426V69.7999H170.482Z" fill="#BE202E"/>
<path d="M181.077 71.3868H179.66V69.7433H181.077V69.0632C181.077 67.5329 182.04 66.3994 184.023 66.3994C184.476 66.3994 184.873 66.4561 185.326 66.4561V68.2697C185.043 68.213 184.759 68.213 184.419 68.213C183.796 68.213 183.513 68.4964 183.513 69.2332V69.7433H185.156V71.3868H183.513V78.5846H181.077V71.3868Z" fill="#BE202E"/>
<path d="M190.481 69.5732C193.258 69.5732 195.014 71.3869 195.014 74.2206C195.014 76.9977 193.201 78.868 190.481 78.868C187.705 78.868 185.949 77.0544 185.949 74.2206C185.949 71.3869 187.762 69.5732 190.481 69.5732ZM190.481 76.9977C192.124 76.9977 192.634 75.5808 192.634 74.2206C192.634 72.8037 192.124 71.3869 190.481 71.3869C188.838 71.3869 188.329 72.8037 188.329 74.2206C188.385 75.5808 188.838 76.9977 190.481 76.9977Z" fill="#BE202E"/>
<path d="M196.6 69.7999H198.866V71.4435H198.923C199.376 70.3667 200.566 69.5732 201.756 69.5732C201.926 69.5732 202.152 69.6299 202.266 69.6866V71.9536C202.039 71.8969 201.699 71.8402 201.416 71.8402C199.66 71.8402 199.036 73.1438 199.036 74.674V78.6413H196.6V69.7999Z" fill="#BE202E"/>
<path d="M203.285 69.7999H205.552V70.9901H205.608C206.232 70.0833 207.138 69.5732 208.271 69.5732C209.404 69.5732 210.367 69.97 210.821 71.0468C211.33 70.31 212.237 69.5732 213.483 69.5732C215.353 69.5732 216.713 70.4234 216.713 72.6904V78.5846H214.277V73.5972C214.277 72.407 214.163 71.4435 212.803 71.4435C211.444 71.4435 211.217 72.577 211.217 73.6539V78.5279H208.781V73.5972C208.781 72.577 208.838 71.3869 207.308 71.3869C206.855 71.3869 205.665 71.6702 205.665 73.4272V78.5279H203.229V69.7999H203.285Z" fill="#BE202E"/>
<path d="M218.526 72.5204C218.639 70.2533 220.679 69.5732 222.661 69.5732C224.418 69.5732 226.514 69.97 226.514 72.067V76.6576C226.514 77.4511 226.627 78.2446 226.797 78.6413H224.361C224.248 78.3579 224.191 78.0745 224.191 77.7912C223.398 78.5846 222.322 78.868 221.245 78.868C219.602 78.868 218.242 78.0179 218.242 76.2609C218.242 74.2773 219.715 73.7672 221.245 73.5972C222.718 73.3705 224.078 73.4272 224.078 72.4637C224.078 71.4435 223.341 71.2735 222.491 71.2735C221.585 71.2735 220.962 71.6702 220.905 72.577H218.526V72.5204ZM224.078 74.2773C223.681 74.6173 222.831 74.674 222.095 74.7874C221.358 74.9574 220.679 75.1841 220.679 76.0909C220.679 76.9977 221.358 77.2244 222.152 77.2244C224.021 77.2244 224.078 75.7508 224.078 75.1841V74.2773Z" fill="#BE202E"/>
<path d="M231.443 69.8H233.199V71.4436H231.443V75.8076C231.443 76.601 231.67 76.8277 232.463 76.8277C232.746 76.8277 232.973 76.8277 233.199 76.771V78.6413C232.803 78.698 232.236 78.698 231.783 78.698C230.31 78.698 229.007 78.358 229.007 76.601V71.4436H227.534V69.8H229.007V67.1929H231.443V69.8Z" fill="#BE202E"/>
<path d="M236.825 68.4397H234.389V66.4561H236.825V68.4397ZM234.446 69.8H236.882V78.5846H234.446V69.8Z" fill="#BE202E"/>
<path d="M243.001 69.5732C245.777 69.5732 247.533 71.3869 247.533 74.2206C247.533 76.9977 245.72 78.868 243.001 78.868C240.224 78.868 238.468 77.0544 238.468 74.2206C238.468 71.3869 240.281 69.5732 243.001 69.5732ZM243.001 76.9977C244.644 76.9977 245.153 75.5808 245.153 74.2206C245.153 72.8037 244.644 71.3869 243.001 71.3869C241.358 71.3869 240.904 72.8037 240.904 74.2206C240.904 75.5808 241.358 76.9977 243.001 76.9977Z" fill="#BE202E"/>
<path d="M249.119 69.7999H251.385V71.0468H251.442C252.065 70.0833 253.085 69.5732 254.105 69.5732C256.654 69.5732 257.334 70.9901 257.334 73.2005V78.5846H254.898V73.5972C254.898 72.1803 254.445 71.4435 253.368 71.4435C252.065 71.4435 251.499 72.1803 251.499 73.9372V78.5279H249.063V69.7999H249.119Z" fill="#BE202E"/>
<path d="M266.002 74.5607C266.002 76.1476 267.249 76.8277 268.665 76.8277C269.628 76.8277 271.045 76.5443 271.045 75.2974C271.045 73.9939 269.232 73.7672 267.419 73.3138C265.606 72.8604 263.793 72.1236 263.793 69.8566C263.793 67.3629 266.116 66.1727 268.325 66.1727C270.875 66.1727 273.198 67.2496 273.198 70.0833H270.591C270.478 68.6098 269.458 68.2697 268.212 68.2697C267.362 68.2697 266.399 68.6098 266.399 69.6299C266.399 70.5934 266.966 70.7067 270.025 71.4435C270.931 71.6702 273.651 72.237 273.651 74.9574C273.651 77.1677 271.895 78.868 268.609 78.868C265.946 78.868 263.396 77.5645 263.453 74.5607H266.002Z" fill="#BE202E"/>
<path d="M279.316 79.6614C278.806 81.0783 277.957 81.645 276.314 81.645C275.804 81.645 275.351 81.5884 274.841 81.5317V79.5481C275.294 79.6047 275.747 79.6614 276.257 79.6614C277.107 79.5481 277.39 78.6979 277.107 78.0178L273.991 69.7999H276.597L278.58 75.8075H278.636L280.563 69.7999H283.056L279.316 79.6614Z" fill="#BE202E"/>
<path d="M285.662 75.7508C285.662 76.8277 286.568 77.2244 287.531 77.2244C288.211 77.2244 289.118 76.941 289.118 76.0909C289.118 75.3541 288.098 75.1274 286.398 74.7307C284.982 74.4473 283.622 73.9372 283.622 72.407C283.622 70.14 285.548 69.5732 287.475 69.5732C289.401 69.5732 291.157 70.1967 291.327 72.407H289.061C289.004 71.4435 288.268 71.2168 287.418 71.2168C286.851 71.2168 286.058 71.3302 286.058 72.0103C286.058 72.8604 287.418 72.9738 288.778 73.3138C290.194 73.6539 291.554 74.1639 291.554 75.8075C291.554 78.1312 289.571 78.868 287.531 78.868C285.492 78.868 283.509 78.1312 283.396 75.7508H285.662Z" fill="#BE202E"/>
<path d="M295.973 69.8H297.729V71.4436H295.973V75.8076C295.973 76.601 296.2 76.8277 296.993 76.8277C297.276 76.8277 297.503 76.8277 297.729 76.771V78.6413C297.333 78.698 296.766 78.698 296.313 78.698C294.84 78.698 293.537 78.358 293.537 76.601V71.4436H292.064V69.8H293.537V67.1929H295.973V69.8Z" fill="#BE202E"/>
<path d="M300.902 74.7874C300.959 76.3176 301.695 76.9977 303.055 76.9977C304.018 76.9977 304.811 76.431 304.981 75.8642H307.134C306.454 77.9612 304.981 78.8113 302.998 78.8113C300.222 78.8113 298.522 76.8844 298.522 74.164C298.522 71.5002 300.335 69.5166 302.998 69.5166C306.001 69.5166 307.417 72.0103 307.247 74.7307H300.902V74.7874ZM304.811 73.2572C304.584 72.0103 304.075 71.3869 302.885 71.3869C301.355 71.3869 300.902 72.5771 300.902 73.2572H304.811Z" fill="#BE202E"/>
<path d="M308.72 69.7999H310.986V70.9901H311.043C311.666 70.0833 312.573 69.5732 313.706 69.5732C314.839 69.5732 315.802 69.97 316.255 71.0468C316.765 70.31 317.672 69.5732 318.918 69.5732C320.788 69.5732 322.147 70.4234 322.147 72.6904V78.5846H319.711V73.5972C319.711 72.407 319.598 71.4435 318.238 71.4435C316.879 71.4435 316.652 72.577 316.652 73.6539V78.5279H314.216V73.5972C314.216 72.577 314.272 71.3869 312.743 71.3869C312.289 71.3869 311.1 71.6702 311.1 73.4272V78.5279H308.664V69.7999H308.72Z" fill="#BE202E"/>
<path d="M119.153 4H131.39L151.673 58.2382H139.265L135.186 46.1663H114.904L110.655 58.2382H98.5873L119.153 4ZM118.02 37.2683H132.07L125.215 17.3753H125.045L118.02 37.2683Z" fill="#345BA9"/>
<path d="M164.08 41.2356C164.364 48.0933 167.706 51.2104 173.712 51.2104C178.017 51.2104 181.53 48.5467 182.21 46.1097H191.728C188.669 55.3477 182.21 59.315 173.372 59.315C161.021 59.315 153.316 50.8137 153.316 38.6852C153.316 26.8968 161.418 17.9421 173.372 17.9421C186.742 17.9421 193.201 29.1638 192.408 41.2356H164.08ZM181.643 34.3779C180.68 28.9371 178.301 26.0466 173.088 26.0466C166.233 26.0466 164.307 31.3741 164.137 34.3779H181.643Z" fill="#345BA9"/>
<path d="M198.81 18.9622H209.064V26.2733H209.234C211.217 21.3426 216.543 17.9421 221.755 17.9421C222.492 17.9421 223.398 18.1121 224.135 18.3388V28.3703C223.171 28.1436 221.528 27.9736 220.282 27.9736C212.407 27.9736 209.631 33.6411 209.631 40.5555V58.2381H198.866V18.9622H198.81Z" fill="#345BA9"/>
<path d="M239.431 12.898H228.667V4H239.431V12.898ZM228.61 18.9622H239.375V58.2382H228.61V18.9622Z" fill="#345BA9"/>
<path d="M256.768 41.2356C257.051 48.0933 260.394 51.2104 266.399 51.2104C270.705 51.2104 274.217 48.5467 274.897 46.1097H284.415C281.356 55.3477 274.897 59.315 266.059 59.315C253.708 59.315 246.003 50.8137 246.003 38.6852C246.003 26.8968 254.105 17.9421 266.059 17.9421C279.43 17.9421 285.888 29.1638 285.095 41.2356H256.768ZM274.331 34.3779C273.368 28.9371 270.988 26.0466 265.776 26.0466C258.921 26.0466 256.994 31.3741 256.824 34.3779H274.331Z" fill="#345BA9"/>
<path d="M299.825 45.4862C299.882 50.1902 303.848 52.1172 308.097 52.1172C311.213 52.1172 315.179 50.927 315.179 47.1298C315.179 43.8426 310.703 42.7091 302.941 41.0655C296.709 39.7053 290.477 37.495 290.477 30.5806C290.477 20.5491 299.146 17.9987 307.587 17.9987C316.142 17.9987 324.074 20.8892 324.924 30.5239H314.669C314.386 26.33 311.156 25.1965 307.304 25.1965C304.868 25.1965 301.298 25.6499 301.298 28.8237C301.298 32.6776 307.361 33.2443 313.536 34.6612C319.825 36.0781 326 38.4018 326 45.6562C326 55.9711 317.049 59.3149 308.097 59.3149C298.976 59.3149 290.081 55.9144 289.628 45.4862H299.825Z" fill="#345BA9"/>
<rect width="82" height="82" rx="7" fill="white"/>
<path d="M7.89691 2.14331C4.73652 2.14331 2.14337 4.73916 2.14337 7.90285V74.097C2.14337 77.0985 4.49341 79.5321 7.4107 79.8566L35.0439 2.14331H7.89691Z" fill="#345BA9"/>
<path d="M79.7756 7.90285C79.7756 4.73916 77.1825 2.14331 74.0221 2.14331H57.8149L79.8567 64.4437V7.90285H79.7756Z" fill="#BE202E"/>
<path d="M61.8667 67.1207H30.1817L26.0489 79.8574H65.9185L61.8667 67.1207Z" fill="#345BA9"/>
<path d="M46.2268 18.4485L35.1249 52.2757H57.0856L46.2268 18.4485Z" fill="#345BA9"/>
</svg>
