<svg width="333" height="78" viewBox="0 0 333 78" fill="none" xmlns="http://www.w3.org/2000/svg">
<path d="M122.663 11.4146H135.107L155.731 65.4016H143.115L138.967 53.3857H118.342L114.021 65.4016H101.75L122.663 11.4146ZM121.511 44.5289H135.798L128.827 24.728H128.654L121.511 44.5289Z" fill="#F6F8FA"/>
<path d="M168.348 48.4778C168.636 55.3037 172.035 58.4064 178.142 58.4064C182.52 58.4064 186.092 55.755 186.784 53.3293H196.462C193.351 62.5246 186.784 66.4734 177.796 66.4734C165.237 66.4734 157.402 58.0115 157.402 45.9392C157.402 34.2054 165.64 25.2921 177.796 25.2921C191.392 25.2921 197.96 36.4619 197.154 48.4778H168.348ZM186.207 41.6518C185.228 36.2362 182.808 33.3592 177.508 33.3592C170.537 33.3592 168.579 38.662 168.406 41.6518H186.207Z" fill="#F6F8FA"/>
<path d="M203.664 26.3076H214.091V33.5848H214.264C216.28 28.6769 221.696 25.2921 226.996 25.2921C227.745 25.2921 228.667 25.4614 229.416 25.687V35.6721C228.436 35.4464 226.766 35.2772 225.498 35.2772C217.49 35.2772 214.667 40.9185 214.667 47.8008V65.4016H203.721V26.3076H203.664Z" fill="#F6F8FA"/>
<path d="M244.971 20.2714H234.025V11.4146H244.971V20.2714ZM233.967 26.3075H244.913V65.4016H233.967V26.3075Z" fill="#F6F8FA"/>
<path d="M262.6 48.4778C262.888 55.3037 266.287 58.4064 272.393 58.4064C276.772 58.4064 280.344 55.755 281.035 53.3293H290.714C287.603 62.5246 281.035 66.4734 272.048 66.4734C259.489 66.4734 251.653 58.0115 251.653 45.9392C251.653 34.2054 259.892 25.2921 272.048 25.2921C285.644 25.2921 292.211 36.4619 291.405 48.4778H262.6ZM280.459 41.6518C279.479 36.2362 277.06 33.3592 271.76 33.3592C264.789 33.3592 262.83 38.662 262.657 41.6518H280.459Z" fill="#F6F8FA"/>
<path d="M306.384 52.7086C306.441 57.3909 310.474 59.3089 314.795 59.3089C317.964 59.3089 321.996 58.1243 321.996 54.3446C321.996 51.0727 317.445 49.9444 309.552 48.3085C303.215 46.9545 296.878 44.7544 296.878 37.8721C296.878 27.8871 305.692 25.3485 314.276 25.3485C322.976 25.3485 331.041 28.2255 331.905 37.8157H321.478C321.19 33.6411 317.906 32.5129 313.988 32.5129C311.511 32.5129 307.882 32.9642 307.882 36.1233C307.882 39.9594 314.046 40.5235 320.326 41.9338C326.72 43.3441 333 45.6571 333 52.8779C333 63.145 323.897 66.4733 314.795 66.4733C305.52 66.4733 296.475 63.0886 296.014 52.7086H306.384Z" fill="#F6F8FA"/>
<path d="M0 6C0 2.68629 2.68629 0 6 0H72.625C75.9387 0 78.625 2.68629 78.625 6V72C78.625 75.3137 75.9387 78 72.625 78H6C2.68629 78 0 75.3137 0 72V6Z" fill="white"/>
<path d="M7.57178 2.03879C4.54147 2.03879 2.05505 4.50801 2.05505 7.51738V70.4826C2.05505 73.3376 4.30837 75.6525 7.10558 75.9612L33.6014 2.03879H7.57178Z" fill="#345BA9"/>
<path d="M76.4921 7.51738C76.4921 4.50801 74.0057 2.03879 70.9754 2.03879H55.4353L76.5698 61.3002V7.51738H76.4921Z" fill="#BE202E"/>
<path d="M59.3203 63.8465H28.9394L24.9767 75.9619H63.2053L59.3203 63.8465Z" fill="#345BA9"/>
<path d="M44.3241 17.5486L33.6791 49.7256H54.736L44.3241 17.5486Z" fill="#345BA9"/>
</svg>
