<svg width="333" height="82" viewBox="0 0 333 82" fill="none" xmlns="http://www.w3.org/2000/svg">
<path d="M126.153 2.40552H138.39L158.673 56.6437H146.265L142.186 44.5719H121.904L117.655 56.6437H105.587L126.153 2.40552ZM125.02 35.6739H139.07L132.215 15.7809H132.045L125.02 35.6739Z" fill="white"/>
<path d="M171.08 39.6411C171.364 46.4988 174.706 49.6159 180.712 49.6159C185.017 49.6159 188.53 46.9522 189.21 44.5152H198.728C195.669 53.7532 189.21 57.7205 180.372 57.7205C168.021 57.7205 160.316 49.2192 160.316 37.0907C160.316 25.3023 168.418 16.3476 180.372 16.3476C193.742 16.3476 200.201 27.5693 199.408 39.6411H171.08ZM188.643 32.7834C187.68 27.3426 185.301 24.4521 180.088 24.4521C173.233 24.4521 171.307 29.7796 171.137 32.7834H188.643Z" fill="white"/>
<path d="M205.81 17.3677H216.064V24.6788H216.234C218.217 19.7481 223.543 16.3476 228.755 16.3476C229.492 16.3476 230.398 16.5176 231.135 16.7443V26.7758C230.171 26.5491 228.528 26.3791 227.282 26.3791C219.407 26.3791 216.631 32.0466 216.631 38.961V56.6437H205.866V17.3677H205.81Z" fill="white"/>
<path d="M246.431 11.3035H235.667V2.40552H246.431V11.3035ZM235.61 17.3678H246.375V56.6437H235.61V17.3678Z" fill="white"/>
<path d="M263.768 39.6411C264.051 46.4988 267.394 49.6159 273.399 49.6159C277.705 49.6159 281.217 46.9522 281.897 44.5152H291.415C288.356 53.7532 281.897 57.7205 273.059 57.7205C260.708 57.7205 253.003 49.2192 253.003 37.0907C253.003 25.3023 261.105 16.3476 273.059 16.3476C286.43 16.3476 292.888 27.5693 292.095 39.6411H263.768ZM281.331 32.7834C280.368 27.3426 277.988 24.4521 272.776 24.4521C265.921 24.4521 263.994 29.7796 263.824 32.7834H281.331Z" fill="white"/>
<path d="M306.825 43.8917C306.882 48.5957 310.848 50.5227 315.097 50.5227C318.213 50.5227 322.179 49.3325 322.179 45.5353C322.179 42.2481 317.703 41.1146 309.941 39.471C303.709 38.1108 297.477 35.9005 297.477 28.9861C297.477 18.9546 306.146 16.4042 314.587 16.4042C323.142 16.4042 331.074 19.2947 331.924 28.9295H321.669C321.386 24.7355 318.156 23.602 314.304 23.602C311.868 23.602 308.298 24.0554 308.298 27.2292C308.298 31.0831 314.361 31.6499 320.536 33.0667C326.825 34.4836 333 36.8073 333 44.0617C333 54.3766 324.049 57.7204 315.097 57.7204C305.976 57.7204 297.081 54.3199 296.628 43.8917H306.825Z" fill="white"/>
<path d="M106.55 72.9665C106.55 74.5534 107.797 75.2335 109.213 75.2335C110.176 75.2335 111.593 74.9501 111.593 73.7033C111.593 72.3997 109.78 72.173 107.967 71.7196C106.154 71.2662 104.341 70.5294 104.341 68.2624C104.341 65.7687 106.664 64.5786 108.873 64.5786C111.423 64.5786 113.746 65.6554 113.746 68.4891H111.139C111.026 67.0156 110.006 66.6755 108.76 66.6755C107.91 66.6755 106.947 67.0156 106.947 68.0357C106.947 68.9992 107.514 69.1126 110.573 69.8493C111.479 70.076 114.199 70.6428 114.199 73.3632C114.199 75.5735 112.443 77.2738 109.157 77.2738C106.494 77.2738 103.944 75.9703 104.001 72.9665H106.55Z" fill="white"/>
<path d="M118.561 68.2055H120.318V69.8491H118.561V74.2131C118.561 75.0066 118.788 75.2333 119.581 75.2333C119.864 75.2333 120.091 75.2333 120.318 75.1766V77.0469C119.921 77.1035 119.354 77.1035 118.901 77.1035C117.428 77.1035 116.125 76.7635 116.125 75.0066V69.8491H114.652V68.2055H116.125V65.5985H118.561V68.2055Z" fill="white"/>
<path d="M129.722 76.9901H127.456V75.7433H127.399C126.776 76.7068 125.756 77.2168 124.737 77.2168C122.187 77.2168 121.507 75.8 121.507 73.5896V68.2055H123.943V73.1929C123.943 74.6098 124.397 75.3465 125.473 75.3465C126.776 75.3465 127.343 74.6098 127.343 72.8528V68.2621H129.779V76.9901H129.722Z" fill="white"/>
<path d="M137.824 75.8567C137.257 76.8202 136.238 77.2169 135.104 77.2169C132.442 77.2169 131.139 74.9499 131.139 72.5128C131.139 70.1325 132.442 67.9788 135.048 67.9788C136.068 67.9788 137.087 68.4322 137.654 69.2824H137.711V64.8617H140.147V76.9902H137.881V75.8567H137.824ZM135.728 69.7924C134.141 69.7924 133.575 71.1526 133.575 72.6262C133.575 73.9864 134.198 75.4599 135.728 75.4599C137.314 75.4599 137.824 74.0431 137.824 72.6262C137.767 71.1526 137.257 69.7924 135.728 69.7924Z" fill="white"/>
<path d="M143.943 73.1929C143.999 74.7231 144.736 75.4032 146.095 75.4032C147.059 75.4032 147.852 74.8365 148.022 74.2697H150.175C149.495 76.3667 148.022 77.2168 146.039 77.2168C143.263 77.2168 141.563 75.2899 141.563 72.5695C141.563 69.9057 143.376 67.9221 146.039 67.9221C149.042 67.9221 150.458 70.4158 150.288 73.1362H143.943V73.1929ZM147.852 71.6627C147.625 70.4158 147.115 69.7924 145.926 69.7924C144.396 69.7924 143.943 70.9825 143.943 71.6627H147.852Z" fill="white"/>
<path d="M151.704 68.2056H153.971V69.4524H154.027C154.65 68.4889 155.67 67.9789 156.69 67.9789C159.239 67.9789 159.919 69.3957 159.919 71.6061V76.9902H157.483V72.0028C157.483 70.5859 157.03 69.8491 155.953 69.8491C154.65 69.8491 154.084 70.5859 154.084 72.3428V76.9335H151.648V68.2056H151.704Z" fill="white"/>
<path d="M164.848 68.2055H166.605V69.8491H164.848V74.2131C164.848 75.0066 165.075 75.2333 165.868 75.2333C166.151 75.2333 166.378 75.2333 166.605 75.1766V77.0469C166.208 77.1035 165.641 77.1035 165.188 77.1035C163.715 77.1035 162.412 76.7635 162.412 75.0066V69.8491H160.939V68.2055H162.412V65.5985H164.848V68.2055Z" fill="white"/>
<path d="M172.723 64.8617H175.386V76.9902H172.723V64.8617Z" fill="white"/>
<path d="M177.482 68.2056H179.749V69.4524H179.805C180.428 68.4889 181.448 67.9789 182.468 67.9789C185.017 67.9789 185.697 69.3957 185.697 71.6061V76.9902H183.261V72.0028C183.261 70.5859 182.808 69.8491 181.731 69.8491C180.428 69.8491 179.862 70.5859 179.862 72.3428V76.9335H177.426V68.2056H177.482Z" fill="white"/>
<path d="M188.077 69.7925H186.66V68.1489H188.077V67.4688C188.077 65.9386 189.04 64.8051 191.023 64.8051C191.476 64.8051 191.873 64.8617 192.326 64.8617V66.6753C192.043 66.6187 191.759 66.6187 191.419 66.6187C190.796 66.6187 190.513 66.902 190.513 67.6388V68.1489H192.156V69.7925H190.513V76.9902H188.077V69.7925Z" fill="white"/>
<path d="M197.481 67.9789C200.258 67.9789 202.014 69.7925 202.014 72.6262C202.014 75.4033 200.201 77.2736 197.481 77.2736C194.705 77.2736 192.949 75.46 192.949 72.6262C192.949 69.7925 194.762 67.9789 197.481 67.9789ZM197.481 75.4033C199.124 75.4033 199.634 73.9864 199.634 72.6262C199.634 71.2093 199.124 69.7925 197.481 69.7925C195.838 69.7925 195.329 71.2093 195.329 72.6262C195.385 73.9864 195.838 75.4033 197.481 75.4033Z" fill="white"/>
<path d="M203.6 68.2056H205.866V69.8491H205.923C206.376 68.7723 207.566 67.9789 208.756 67.9789C208.926 67.9789 209.152 68.0355 209.266 68.0922V70.3592C209.039 70.3025 208.699 70.2459 208.416 70.2459C206.66 70.2459 206.036 71.5494 206.036 73.0796V77.0469H203.6V68.2056Z" fill="white"/>
<path d="M210.286 68.2056H212.552V69.3957H212.608C213.232 68.4889 214.138 67.9789 215.271 67.9789C216.404 67.9789 217.367 68.3756 217.821 69.4524C218.331 68.7156 219.237 67.9789 220.483 67.9789C222.353 67.9789 223.713 68.829 223.713 71.096V76.9902H221.277V72.0028C221.277 70.8126 221.163 69.8491 219.804 69.8491C218.444 69.8491 218.217 70.9826 218.217 72.0595V76.9335H215.781V72.0028C215.781 70.9826 215.838 69.7925 214.308 69.7925C213.855 69.7925 212.665 70.0758 212.665 71.8328V76.9335H210.229V68.2056H210.286Z" fill="white"/>
<path d="M225.526 70.926C225.639 68.659 227.679 67.9789 229.661 67.9789C231.418 67.9789 233.514 68.3756 233.514 70.4726V75.0633C233.514 75.8567 233.627 76.6502 233.797 77.0469H231.361C231.248 76.7635 231.191 76.4801 231.191 76.1968C230.398 76.9902 229.322 77.2736 228.245 77.2736C226.602 77.2736 225.242 76.4235 225.242 74.6665C225.242 72.6829 226.715 72.1728 228.245 72.0028C229.718 71.7761 231.078 71.8328 231.078 70.8693C231.078 69.8491 230.341 69.6791 229.491 69.6791C228.585 69.6791 227.962 70.0758 227.905 70.9826H225.526V70.926ZM231.078 72.6829C230.681 73.0229 229.831 73.0796 229.095 73.193C228.358 73.363 227.679 73.5897 227.679 74.4965C227.679 75.4033 228.358 75.63 229.152 75.63C231.021 75.63 231.078 74.1565 231.078 73.5897V72.6829Z" fill="white"/>
<path d="M238.443 68.2055H240.199V69.8491H238.443V74.2131C238.443 75.0066 238.67 75.2333 239.463 75.2333C239.746 75.2333 239.973 75.2333 240.199 75.1766V77.0469C239.803 77.1035 239.236 77.1035 238.783 77.1035C237.31 77.1035 236.007 76.7635 236.007 75.0066V69.8491H234.534V68.2055H236.007V65.5985H238.443V68.2055Z" fill="white"/>
<path d="M243.825 66.8453H241.389V64.8617H243.825V66.8453ZM241.446 68.2055H243.882V76.9902H241.446V68.2055Z" fill="white"/>
<path d="M250.001 67.9789C252.777 67.9789 254.533 69.7925 254.533 72.6262C254.533 75.4033 252.72 77.2736 250.001 77.2736C247.224 77.2736 245.468 75.46 245.468 72.6262C245.468 69.7925 247.281 67.9789 250.001 67.9789ZM250.001 75.4033C251.644 75.4033 252.153 73.9864 252.153 72.6262C252.153 71.2093 251.644 69.7925 250.001 69.7925C248.358 69.7925 247.904 71.2093 247.904 72.6262C247.904 73.9864 248.358 75.4033 250.001 75.4033Z" fill="white"/>
<path d="M256.119 68.2056H258.386V69.4524H258.442C259.065 68.4889 260.085 67.9789 261.105 67.9789C263.654 67.9789 264.334 69.3957 264.334 71.6061V76.9902H261.898V72.0028C261.898 70.5859 261.445 69.8491 260.368 69.8491C259.065 69.8491 258.499 70.5859 258.499 72.3428V76.9335H256.063V68.2056H256.119Z" fill="white"/>
<path d="M273.002 72.9662C273.002 74.5531 274.249 75.2332 275.665 75.2332C276.628 75.2332 278.045 74.9499 278.045 73.703C278.045 72.3995 276.232 72.1728 274.419 71.7194C272.606 71.266 270.793 70.5292 270.793 68.2622C270.793 65.7685 273.116 64.5783 275.325 64.5783C277.875 64.5783 280.198 65.6551 280.198 68.4889H277.591C277.478 67.0153 276.458 66.6753 275.212 66.6753C274.362 66.6753 273.399 67.0153 273.399 68.0355C273.399 68.999 273.966 69.1123 277.025 69.8491C277.931 70.0758 280.651 70.6426 280.651 73.363C280.651 75.5733 278.895 77.2736 275.609 77.2736C272.946 77.2736 270.396 75.97 270.453 72.9662H273.002Z" fill="white"/>
<path d="M286.316 78.067C285.806 79.4838 284.957 80.0506 283.314 80.0506C282.804 80.0506 282.351 79.9939 281.841 79.9372V77.9536C282.294 78.0103 282.747 78.067 283.257 78.067C284.107 77.9536 284.39 77.1035 284.107 76.4234L280.991 68.2055H283.597L285.58 74.213H285.636L287.563 68.2055H290.056L286.316 78.067Z" fill="white"/>
<path d="M292.662 74.1565C292.662 75.2333 293.568 75.63 294.531 75.63C295.211 75.63 296.118 75.3466 296.118 74.4965C296.118 73.7597 295.098 73.533 293.398 73.1363C291.982 72.8529 290.622 72.3428 290.622 70.8126C290.622 68.5456 292.548 67.9789 294.475 67.9789C296.401 67.9789 298.157 68.6023 298.327 70.8126H296.061C296.004 69.8491 295.268 69.6224 294.418 69.6224C293.851 69.6224 293.058 69.7358 293.058 70.4159C293.058 71.266 294.418 71.3794 295.778 71.7194C297.194 72.0595 298.554 72.5695 298.554 74.2131C298.554 76.5368 296.571 77.2736 294.531 77.2736C292.492 77.2736 290.509 76.5368 290.396 74.1565H292.662Z" fill="white"/>
<path d="M302.973 68.2055H304.729V69.8491H302.973V74.2131C302.973 75.0066 303.2 75.2333 303.993 75.2333C304.276 75.2333 304.503 75.2333 304.729 75.1766V77.0469C304.333 77.1035 303.766 77.1035 303.313 77.1035C301.84 77.1035 300.537 76.7635 300.537 75.0066V69.8491H299.064V68.2055H300.537V65.5985H302.973V68.2055Z" fill="white"/>
<path d="M307.902 73.1929C307.959 74.7231 308.695 75.4032 310.055 75.4032C311.018 75.4032 311.811 74.8365 311.981 74.2697H314.134C313.454 76.3667 311.981 77.2168 309.998 77.2168C307.222 77.2168 305.522 75.2899 305.522 72.5695C305.522 69.9057 307.335 67.9221 309.998 67.9221C313.001 67.9221 314.417 70.4158 314.247 73.1362H307.902V73.1929ZM311.811 71.6627C311.584 70.4158 311.075 69.7924 309.885 69.7924C308.355 69.7924 307.902 70.9825 307.902 71.6627H311.811Z" fill="white"/>
<path d="M315.72 68.2056H317.986V69.3957H318.043C318.666 68.4889 319.573 67.9789 320.706 67.9789C321.839 67.9789 322.802 68.3756 323.255 69.4524C323.765 68.7156 324.672 67.9789 325.918 67.9789C327.788 67.9789 329.147 68.829 329.147 71.096V76.9902H326.711V72.0028C326.711 70.8126 326.598 69.8491 325.238 69.8491C323.879 69.8491 323.652 70.9826 323.652 72.0595V76.9335H321.216V72.0028C321.216 70.9826 321.272 69.7925 319.743 69.7925C319.289 69.7925 318.1 70.0758 318.1 71.8328V76.9335H315.664V68.2056H315.72Z" fill="white"/>
<path d="M0 7C0 3.13401 3.13401 0 7 0H75C78.866 0 82 3.13401 82 7V75C82 78.866 78.866 82 75 82H7C3.13401 82 0 78.866 0 75V7Z" fill="white"/>
<path d="M7.89691 2.14331C4.73652 2.14331 2.14337 4.73916 2.14337 7.90285V74.097C2.14337 77.0985 4.49341 79.5321 7.4107 79.8566L35.0439 2.14331H7.89691Z" fill="#345BA9"/>
<path d="M79.7756 7.90285C79.7756 4.73916 77.1825 2.14331 74.0221 2.14331H57.8149L79.8567 64.4437V7.90285H79.7756Z" fill="#BE202E"/>
<path d="M61.8667 67.1207H30.1817L26.0489 79.8574H65.9185L61.8667 67.1207Z" fill="#345BA9"/>
<path d="M46.2268 18.4485L35.1249 52.2757H57.0856L46.2268 18.4485Z" fill="#345BA9"/>
</svg>
