<svg width="333" height="78" viewBox="0 0 333 78" fill="none" xmlns="http://www.w3.org/2000/svg">
<path d="M122.663 11.4146H135.107L155.731 65.4016H143.115L138.967 53.3857H118.342L114.021 65.4016H101.75L122.663 11.4146ZM121.511 44.5288H135.798L128.827 24.7281H128.654L121.511 44.5288Z" fill="#345BA9"/>
<path d="M168.348 48.4779C168.636 55.3039 172.035 58.4064 178.142 58.4064C182.52 58.4064 186.092 55.7551 186.784 53.3293H196.462C193.351 62.5246 186.784 66.4735 177.796 66.4735C165.237 66.4735 157.402 58.0116 157.402 45.9393C157.402 34.2053 165.64 25.2922 177.796 25.2922C191.392 25.2922 197.96 36.4618 197.154 48.4779H168.348ZM186.207 41.6518C185.228 36.2363 182.808 33.3592 177.508 33.3592C170.537 33.3592 168.578 38.6621 168.406 41.6518H186.207Z" fill="#345BA9"/>
<path d="M203.664 26.3076H214.091V33.5848H214.264C216.28 28.6769 221.696 25.2922 226.996 25.2922C227.745 25.2922 228.667 25.4615 229.416 25.687V35.6722C228.436 35.4464 226.766 35.2774 225.498 35.2774C217.49 35.2774 214.667 40.9186 214.667 47.8009V65.4016H203.721V26.3076H203.664Z" fill="#345BA9"/>
<path d="M244.97 20.2714H234.025V11.4146H244.97V20.2714ZM233.967 26.3075H244.912V65.4016H233.967V26.3075Z" fill="#345BA9"/>
<path d="M262.601 48.4779C262.887 55.3039 266.287 58.4064 272.394 58.4064C276.772 58.4064 280.344 55.7551 281.036 53.3293H290.714C287.603 62.5246 281.036 66.4735 272.047 66.4735C259.488 66.4735 251.653 58.0116 251.653 45.9393C251.653 34.2053 259.893 25.2922 272.047 25.2922C285.645 25.2922 292.212 36.4618 291.405 48.4779H262.601ZM280.46 41.6518C279.48 36.2363 277.061 33.3592 271.76 33.3592C264.788 33.3592 262.83 38.6621 262.656 41.6518H280.46Z" fill="#345BA9"/>
<path d="M306.383 52.7087C306.441 57.391 310.474 59.3089 314.796 59.3089C317.964 59.3089 321.997 58.1242 321.997 54.3447C321.997 51.0728 317.446 49.9445 309.551 48.3084C303.215 46.9546 296.879 44.7546 296.879 37.8722C296.879 27.8871 305.692 25.3484 314.276 25.3484C322.975 25.3484 331.041 28.2254 331.906 37.8158H321.477C321.19 33.6412 317.906 32.5129 313.989 32.5129C311.512 32.5129 307.882 32.9642 307.882 36.1234C307.882 39.9594 314.047 40.5235 320.325 41.9339C326.722 43.3441 333 45.6571 333 52.8778C333 63.1449 323.898 66.4734 314.796 66.4734C305.521 66.4734 296.474 63.0887 296.014 52.7087H306.383Z" fill="#345BA9"/>
<path d="M71.6875 0H6.9375C3.10602 0 0 3.08133 0 6.88235V71.1176C0 74.9187 3.10602 78 6.9375 78H71.6875C75.519 78 78.625 74.9187 78.625 71.1176V6.88235C78.625 3.08133 75.519 0 71.6875 0Z" fill="white"/>
<path d="M7.5718 2.03879C4.54147 2.03879 2.05505 4.50801 2.05505 7.51739V70.4826C2.05505 73.3377 4.30837 75.6524 7.10557 75.9612L33.6015 2.03879H7.5718Z" fill="#345BA9"/>
<path d="M76.4922 7.51732C76.4922 4.50796 74.0058 2.03873 70.9755 2.03873H55.4352L76.5699 61.3002V7.51732H76.4922Z" fill="#BE202E"/>
<path d="M59.3202 63.8464H28.9395L24.9768 75.9619H63.2052L59.3202 63.8464Z" fill="#345BA9"/>
<path d="M44.3242 17.5486L33.6793 49.7257H54.736L44.3242 17.5486Z" fill="#345BA9"/>
</svg>
